# xmcd
#
# Track frame offsets: 
#        150
#        33181
#        57052
#        76354
#        104837
#        132303
#        148707
#        181727
#        201151
#        222436
#
# Disc length: 3247 seconds
#
# Revision: 1
# Processed by: cddbd v1.5.2PL0 Copyright (c) Steve Scherf et al.
# Submitted via: ExactAudioCopy v0.99pb5
#
DISCID=900cad0a
DTITLE=Prince Phillip Mitchell - Make It Good
DYEAR=1978
DGENRE=Soul
TTITLE0=Star In The Ghetto
TTITLE1=You're All I Got In The World
TTITLE2=One On One
TTITLE3=Falling From Heaven
TTITLE4=You'll Throw Bricks At Him
TTITLE5=Make It Good
TTITLE6=If I Can't Be Your Man
TTITLE7=Only Smoke Remains
TTITLE8=One On One (Long Single Version) (Bonus Track)
TTITLE9=What Part Of Heaven Do You Come From (Bonus Track)
EXTD=
EXTT0=
EXTT1=
EXTT2=
EXTT3=
EXTT4=
EXTT5=
EXTT6=
EXTT7=
EXTT8=
EXTT9=
PLAYORDER=
